<svg width="64" height="64" viewBox="0 0 64 64" fill="none" xmlns="http://www.w3.org/2000/svg">
<path d="M25.5335 43.3333L43.3335 32L25.5335 20.6667V43.3333ZM32.0002 58.6667C28.3557 58.6667 24.9113 57.9667 21.6668 56.5667C18.4224 55.1667 15.5891 53.2555 13.1668 50.8333C10.7446 48.4111 8.8335 45.5778 7.4335 42.3333C6.0335 39.0889 5.3335 35.6444 5.3335 32C5.3335 28.3111 6.0335 24.8444 7.4335 21.6C8.8335 18.3556 10.7446 15.5333 13.1668 13.1333C15.5891 10.7333 18.4224 8.83333 21.6668 7.43333C24.9113 6.03333 28.3557 5.33333 32.0002 5.33333C35.689 5.33333 39.1557 6.03333 42.4002 7.43333C45.6446 8.83333 48.4668 10.7333 50.8668 13.1333C53.2668 15.5333 55.1668 18.3556 56.5668 21.6C57.9668 24.8444 58.6668 28.3111 58.6668 32C58.6668 35.6444 57.9668 39.0889 56.5668 42.3333C55.1668 45.5778 53.2668 48.4111 50.8668 50.8333C48.4668 53.2555 45.6446 55.1667 42.4002 56.5667C39.1557 57.9667 35.689 58.6667 32.0002 58.6667ZM32.0002 54.6667C38.3113 54.6667 43.6668 52.4555 48.0668 48.0333C52.4668 43.6111 54.6668 38.2667 54.6668 32C54.6668 25.6889 52.4668 20.3333 48.0668 15.9333C43.6668 11.5333 38.3113 9.33333 32.0002 9.33333C25.7335 9.33333 20.3891 11.5333 15.9668 15.9333C11.5446 20.3333 9.3335 25.6889 9.3335 32C9.3335 38.2667 11.5446 43.6111 15.9668 48.0333C20.3891 52.4555 25.7335 54.6667 32.0002 54.6667Z" fill="white"/>
</svg>
